<?xml version="1.0" encoding="UTF-8" standalone="no"?>
<svg
   xmlns:dc="http://purl.org/dc/elements/1.1/"
   xmlns:cc="http://creativecommons.org/ns#"
   xmlns:rdf="http://www.w3.org/1999/02/22-rdf-syntax-ns#"
   xmlns:svg="http://www.w3.org/2000/svg"
   xmlns="http://www.w3.org/2000/svg"
   xml:space="preserve"
   style="enable-background:new 0 0 511.624 511.623;"
   viewBox="0 0 511.624 511.623"
   height="511.623px"
   width="511.624px"
   y="0px"
   x="0px"
   id="Capa_1"
   version="1.1"><metadata
     id="metadata45"><rdf:RDF><cc:Work
         rdf:about=""><dc:format>image/svg+xml</dc:format><dc:type
           rdf:resource="http://purl.org/dc/dcmitype/StillImage" /><dc:title></dc:title></cc:Work></rdf:RDF></metadata><defs
     id="defs43" /><g
     transform="rotate(90,255.812,255.812)"
     id="g8"><g
       id="g6"><path
         id="path2"
         d="m 9.135,200.996 h 392.862 v 54.818 c 0,2.475 0.9,4.613 2.707,6.424 1.811,1.81 3.953,2.713 6.427,2.713 2.666,0 4.856,-0.855 6.563,-2.569 l 91.365,-91.362 c 1.707,-1.713 2.563,-3.903 2.563,-6.565 0,-2.667 -0.856,-4.858 -2.57,-6.567 L 417.982,66.81 c -2.286,-1.906 -4.572,-2.856 -6.858,-2.856 -2.662,0 -4.853,0.856 -6.563,2.568 -1.711,1.715 -2.566,3.901 -2.566,6.567 v 54.818 H 9.135 c -2.474,0 -4.615,0.903 -6.423,2.712 C 0.904,132.428 0,134.568 0,137.042 v 54.818 c 0,2.474 0.903,4.615 2.712,6.423 1.809,1.808 3.949,2.713 6.423,2.713 z" /><path
         id="path4"
         d="M 502.49,310.637 H 109.632 v -54.82 c 0,-2.474 -0.905,-4.615 -2.712,-6.423 -1.809,-1.809 -3.951,-2.712 -6.424,-2.712 -2.667,0 -4.854,0.856 -6.567,2.568 L 2.568,340.607 C 0.859,342.325 0,344.509 0,347.179 c 0,2.471 0.855,4.568 2.568,6.275 l 91.077,91.365 c 2.285,1.902 4.569,2.851 6.854,2.851 2.473,0 4.615,-0.903 6.423,-2.707 1.807,-1.813 2.712,-3.949 2.712,-6.427 V 383.72 H 502.49 c 2.478,0 4.613,-0.899 6.427,-2.71 1.807,-1.811 2.707,-3.949 2.707,-6.427 v -54.816 c 0,-2.475 -0.903,-4.613 -2.707,-6.42 -1.814,-1.807 -3.95,-2.71 -6.427,-2.71 z" /></g></g><g
     id="g10" /><g
     id="g12" /><g
     id="g14" /><g
     id="g16" /><g
     id="g18" /><g
     id="g20" /><g
     id="g22" /><g
     id="g24" /><g
     id="g26" /><g
     id="g28" /><g
     id="g30" /><g
     id="g32" /><g
     id="g34" /><g
     id="g36" /><g
     id="g38" /></svg>